<svg id="Layer_1" data-name="Layer 1" xmlns="http://www.w3.org/2000/svg" xmlns:xlink="http://www.w3.org/1999/xlink" viewBox="0 0 800 826.74"><defs><style>.cls-1{fill:url(#Orange_Yellow);}.cls-2,.cls-3{fill:#2e5071;}.cls-3{font-size:643.97px;stroke:#2e5071;stroke-miterlimit:10;font-family:MyriadPro-Regular, Myriad Pro;}</style><linearGradient id="Orange_Yellow" x1="2.5" y1="413.37" x2="797.5" y2="413.37" gradientUnits="userSpaceOnUse"><stop offset="0" stop-color="#fff33b"/><stop offset="0.04" stop-color="#fee72e"/><stop offset="0.12" stop-color="#fed51b"/><stop offset="0.2" stop-color="#fdca10"/><stop offset="0.28" stop-color="#fdc70c"/><stop offset="0.67" stop-color="#f3903f"/><stop offset="0.89" stop-color="#ed683c"/><stop offset="1" stop-color="#e93e3a"/></linearGradient></defs><path class="cls-1" d="M400,824.24A384.08,384.08,0,0,1,245.3,792a395.77,395.77,0,0,1-126.35-88,410.63,410.63,0,0,1-85.2-130.6,425,425,0,0,1,0-319.92A410.63,410.63,0,0,1,119,122.81a395.58,395.58,0,0,1,126.35-88,386.84,386.84,0,0,1,309.4,0,395.58,395.58,0,0,1,126.35,88,410.63,410.63,0,0,1,85.2,130.6,425,425,0,0,1,0,319.92,410.63,410.63,0,0,1-85.2,130.6A395.77,395.77,0,0,1,554.7,792,384.08,384.08,0,0,1,400,824.24Z"/><path class="cls-2" d="M400,5A381.42,381.42,0,0,1,553.7,37.07a393.15,393.15,0,0,1,125.55,87.48,408.14,408.14,0,0,1,84.69,129.81,422.55,422.55,0,0,1,0,318,408.14,408.14,0,0,1-84.69,129.81A393.15,393.15,0,0,1,553.7,789.67a384.35,384.35,0,0,1-307.4,0,393.15,393.15,0,0,1-125.55-87.48A408.14,408.14,0,0,1,36.06,572.38a422.55,422.55,0,0,1,0-318,408.14,408.14,0,0,1,84.69-129.81A393.15,393.15,0,0,1,246.3,37.07,381.42,381.42,0,0,1,400,5m0-5C179.09,0,0,185.07,0,413.37S179.09,826.74,400,826.74,800,641.67,800,413.37,620.91,0,400,0Z"/><text class="cls-3" transform="translate(354.16 632.61)">B</text><text class="cls-3" transform="matrix(-1, 0, 0, 1, 425.98, 632.61)">B</text></svg>