<?xml version="1.0" encoding="utf-8"?>
<!-- Generator: Adobe Illustrator 26.3.1, SVG Export Plug-In . SVG Version: 6.00 Build 0)  -->
<svg version="1.1" id="Layer_1" xmlns="http://www.w3.org/2000/svg" xmlns:xlink="http://www.w3.org/1999/xlink" x="0px" y="0px"
	 viewBox="0 0 110 110" style="enable-background:new 0 0 110 110;" xml:space="preserve">
<style type="text/css">
	.st0{fill-rule:evenodd;clip-rule:evenodd;fill:#231F20;stroke:#000000;stroke-width:3.61;stroke-miterlimit:2.61;}
</style>
<g id="Layer_2_00000028321547689140879700000017993888049441650848_">
	<g id="Layer_1-2">
		<path class="st0" d="M106.1,86.4l-11.8-7.9l-10.5-7c-2-1.3-4.7-0.9-6.2,1l-6.5,8.4c-1.4,1.8-3.9,2.3-5.9,1.2
			c-4.4-2.4-9.6-4.8-21.1-16.2S30.3,49.2,27.9,44.8c-1.1-2-0.6-4.5,1.2-5.9l8.3-6.5c1.9-1.5,2.3-4.2,1-6.2L31.7,16L23.6,3.9
			c-1.4-2.1-4.1-2.7-6.2-1.4L8,8.1c-2.5,1.5-4.4,3.9-5.2,6.7c-2.5,9.3-3,29.8,29.8,62.6s53.3,32.3,62.6,29.8
			c2.8-0.8,5.2-2.7,6.7-5.2l5.6-9.3C108.8,90.5,108.2,87.8,106.1,86.4z"/>
	</g>
</g>
</svg>
