<?xml version="1.0" encoding="UTF-8"?><svg xmlns="http://www.w3.org/2000/svg" viewBox="0 0 100 100"><defs><style>.f{fill:#2e5071;fill-rule:evenodd;}</style></defs><g id="a"/><g id="b"><g id="c"><g id="d"><g id="e"><path class="f" d="M50,0C22.38,0,0,22.94,0,51.26c0,22.66,14.33,41.85,34.19,48.65,2.49,.47,3.41-1.1,3.41-2.49,0-1.23-.03-4.44-.06-8.72-13.9,3.08-16.85-6.86-16.85-6.86-2.27-5.92-5.56-7.49-5.56-7.49-4.54-3.18,.34-3.12,.34-3.12,5,.38,7.67,5.29,7.67,5.29,4.45,7.83,11.69,5.57,14.55,4.25,.46-3.3,1.75-5.57,3.16-6.86-11.11-1.29-22.77-5.7-22.77-25.33,0-5.6,1.93-10.16,5.16-13.75-.52-1.29-2.24-6.51,.49-13.56,0,0,4.21-1.38,13.75,5.25,3.99-1.13,8.26-1.7,12.52-1.73,4.24,0,8.53,.6,12.52,1.73,9.55-6.64,13.75-5.25,13.75-5.25,2.73,7.05,1.01,12.27,.49,13.56,3.19,3.59,5.13,8.15,5.13,13.75,0,19.7-11.69,24.01-22.84,25.3,1.78,1.57,3.41,4.72,3.41,9.5,0,6.86-.06,12.37-.06,14.07,0,1.38,.89,2.96,3.44,2.45,19.86-6.8,34.16-25.99,34.16-48.61,0-28.35-22.38-51.29-50-51.29Z"/></g></g></g></g></svg>