<?xml version="1.0" encoding="UTF-8"?><svg xmlns="http://www.w3.org/2000/svg" viewBox="0 0 99.46 104.16"><defs><style>.d{font-family:MyriadPro-Regular, Myriad Pro;font-size:26.85px;}.d,.e{fill:#2e5071;}.e{stroke:#2e5071;stroke-miterlimit:10;}.f{letter-spacing:0em;}</style></defs><g id="a"/><g id="b"><g id="c"><g><path class="e" d="M17.98,103.12c-.43-.2-.74-.62-.74-1.12V29.71c0-.67,.56-1.22,1.26-1.22h62.47c.69,0,1.26,.54,1.26,1.22V95.61c0,.07,0,.13-.01,.19-.18,2.4-.98,4.28-2.43,5.62-1.45,1.33-3.49,2.08-6.13,2.23-.06,0-.11,.01-.16,.01H19.02c-.43,0-.81-.22-1.04-.54h0Zm27.88-50.73c1.56,3.14,6.26,3.25,7.75,.02-.4-.4-.71-.83-1.01-1.25-.05-.07-.1-.14-.14-.21-.72,.55-1.59,.91-2.72,.91-1.22,0-2.15-.46-2.91-1.13-.04-.04-.09-.08-.13-.12-.11,.29-.25,.64-.39,.97-.15,.31-.3,.61-.45,.82h0Zm8.19-.33c1.66,1.14,5.69,1.41,7.24,2.25,.52,.28,.98,.63,1.36,1.11,.78,1,2.37,4.62-.21,4.81h-4.86l.6-6.5c-1.3-.24-2.68-.44-4.13-1.25-.89,3.8-6.93,4.34-8.67,.1-1.29,.63-2.55,1-4.06,1.22l.94,6.42h-5.22c-2.58-.19-.99-3.82-.21-4.81,.37-.48,.84-.83,1.36-1.11,1.54-.84,5.56-1.11,7.23-2.24,.12-.18,.25-.44,.38-.72,.19-.42,.37-.89,.48-1.21-.47-.53-.86-1.13-1.25-1.73l-1.26-1.95c-.46-.67-.7-1.28-.72-1.78,0-.24,.03-.45,.13-.64,.09-.2,.24-.36,.43-.49,.09-.06,.2-.11,.31-.15-.08-1.06-.11-2.39-.06-3.51,.03-.26,.08-.53,.16-.8,.32-1.12,1.13-2.02,2.14-2.64,.55-.34,1.16-.6,1.79-.77,.4-.11-.06-.98,.36-1.03,2-.2,4.97,1.21,6.37,2.68,.7,.73,1.14,1.71,1.24,3l-.08,3.18h0c.35,.1,.57,.32,.67,.67,.1,.39,0,.93-.35,1.68h0s-.01,.02-.02,.04l-1.44,2.3c-.53,.84-1.07,1.69-1.76,2.36,.06,.09,.13,.18,.19,.27,.28,.4,.57,.81,.94,1.17,0,.02,0,.03,.01,.04h0Zm-9.43-8.09c-.28,.01-.49,.07-.64,.16-.08,.06-.14,.12-.18,.2-.04,.09-.06,.2-.06,.33,.01,.37,.21,.86,.6,1.43h0l1.26,1.96c.5,.78,1.04,1.58,1.7,2.17,.64,.56,1.41,.94,2.42,.95,1.1,0,1.91-.39,2.57-.99,.68-.62,1.22-1.47,1.75-2.31l1.42-2.28c.26-.59,.36-.98,.3-1.21-.04-.13-.19-.2-.46-.22-.06,0-.11,0-.17,0-.06,0-.13,0-.2,.01-.04,0-.08,0-.11,0-.13,0-.26,0-.39-.02l.49-2.09c-3.62,.55-6.32-2.06-10.15-.52l.28,2.47c-.14,0-.29,0-.43-.02h0Zm17.03,50.69c-.69,0-1.25-.54-1.25-1.22s.55-1.22,1.25-1.22h10.51c.69,0,1.25,.54,1.25,1.22s-.55,1.22-1.25,1.22h-10.51Zm-33.81-8.91c-.69,0-1.25-.54-1.25-1.22s.55-1.22,1.25-1.22h44.43c.69,0,1.25,.54,1.25,1.22s-.55,1.22-1.25,1.22H27.83Zm.2-8.91c-.69,0-1.25-.54-1.25-1.22s.55-1.22,1.25-1.22h44.12c.69,0,1.25,.54,1.25,1.22s-.55,1.22-1.25,1.22H28.04Zm-.2-8.91c-.69,0-1.25-.54-1.25-1.22s.55-1.22,1.25-1.22h18.99c.69,0,1.25,.54,1.25,1.22s-.55,1.22-1.25,1.22H27.83Zm23.84,0c-.69,0-1.25-.54-1.25-1.22s.55-1.22,1.25-1.22h20.48c.69,0,1.25,.54,1.25,1.22s-.55,1.22-1.25,1.22h-20.48Zm28.04,27.64V30.92H19.75V101.21h53.76c2.02-.11,3.54-.64,4.54-1.56,.99-.91,1.54-2.28,1.66-4.07h0Z"/><text class="d" transform="translate(4.81 22.48)"><tspan class="f" x="0" y="0">R</tspan><tspan x="14.55" y="0">esume</tspan></text></g></g></g></svg>