<?xml version="1.0" encoding="UTF-8"?><svg xmlns="http://www.w3.org/2000/svg" viewBox="0 0 100 100"><defs><style>.f{fill:#2e5071;}</style></defs><g id="a"/><g id="b"><g id="c"><g id="d"><path id="e" class="f" d="M89.76,24.89c.06,1.08,.06,2.17,.06,3.26,0,33.36-20.64,71.84-58.37,71.84v-.02c-11.15,.02-22.06-3.91-31.45-11.32,1.62,.24,3.25,.36,4.88,.36,9.24,.01,18.21-3.8,25.48-10.83-8.78-.2-16.48-7.25-19.17-17.53,3.08,.73,6.24,.58,9.26-.43-9.57-2.38-16.46-12.73-16.46-24.75v-.32c2.85,1.95,6.05,3.04,9.31,3.16C4.3,30.9,1.52,16.15,6.96,4.61c10.42,15.77,25.79,25.36,42.28,26.38-1.65-8.77,.61-17.96,5.94-24.12,8.26-9.56,21.26-9.07,29.03,1.09,4.59-1.11,9-3.19,13.03-6.13-1.53,5.84-4.74,10.81-9.02,13.96,4.07-.59,8.04-1.93,11.78-3.97-2.75,5.08-6.22,9.5-10.24,13.08Z"/></g></g></g></svg>