<?xml version="1.0" encoding="UTF-8"?><svg id="Layer_2" xmlns="http://www.w3.org/2000/svg" xmlns:xlink="http://www.w3.org/1999/xlink" viewBox="0 0 15.87 15"><defs><style>.cls-1{fill:url(#linear-gradient-2);}.cls-2{fill:url(#linear-gradient);}</style><linearGradient id="linear-gradient" x1="6.14" y1="5.46" x2="14.48" y2="10.27" gradientTransform="matrix(1, 0, 0, 1, 0, 0)" gradientUnits="userSpaceOnUse"><stop offset="0" stop-color="#e90dda"/><stop offset="1" stop-color="#15cff1"/></linearGradient><linearGradient id="linear-gradient-2" x1="-1.85" y1="7.5" x2="5.85" y2="7.5" gradientTransform="matrix(1, 0, 0, 1, 0, 0)" gradientUnits="userSpaceOnUse"><stop offset="0" stop-color="#e90dda"/><stop offset="1" stop-color="#15cff1"/></linearGradient></defs><path class="cls-2" d="M10.21,14.73l5.41-6.47c.34-.41,.34-1.12,0-1.53L10.21,.27c-.32-.38-.82-.35-1.11,.08h0c-.29,.42-.26,1.07,.06,1.45l4.13,4.94c.34,.41,.34,1.12,0,1.53l-4.13,4.94c-.32,.38-.34,1.03-.06,1.45h0c.29,.43,.79,.46,1.11,.08Z"/><path class="cls-1" d="M5.67,14.73L.26,8.27c-.34-.41-.34-1.12,0-1.53L5.67,.27c.32-.38,.82-.35,1.11,.08h0c.29,.42,.26,1.07-.06,1.45L2.59,6.74c-.34,.41-.34,1.12,0,1.53l4.13,4.94c.32,.38,.34,1.03,.06,1.45h0c-.29,.43-.79,.46-1.11,.08Z"/></svg>